<svg xmlns="http://www.w3.org/2000/svg" xmlns:xlink="http://www.w3.org/1999/xlink" width="3132" height="247pt" viewBox="0 0 2349 246.8"><g id="graph0" class="graph" transform="scale(1 1) rotate(0) translate(4 242.8)"><title>dependencies</title><polygon fill="#fff" stroke="transparent" points="-4 4 -4 -242.8 2345 -242.8 2345 4 -4 4"/><text x="1170.5" y="-8.2" font-family="sans-serif" font-size="14" text-anchor="middle">dependencies</text><g id="clust1" class="cluster"><title>cluster_AppModule</title><polygon fill="none" stroke="#000" stroke-dasharray="1 5" points="8 -32.8 8 -230.8 2333 -230.8 2333 -32.8 8 -32.8"/></g><g id="clust2" class="cluster"><title>cluster_AppModule_declarations</title><polygon fill="none" stroke="#000" points="398 -40.8 398 -92.8 2325 -92.8 2325 -40.8 398 -40.8"/></g><g id="clust15" class="cluster"><title>cluster_AppModule_imports</title><polygon fill="none" stroke="#000" points="16 -40.8 16 -92.8 390 -92.8 390 -40.8 16 -40.8"/></g><g id="clust17" class="cluster"><title>cluster_AppModule_bootstrap</title><polygon fill="none" stroke="#000" points="1086 -170.8 1086 -222.8 1210 -222.8 1210 -170.8 1086 -170.8"/></g><g id="node1" class="node"><title>AppComponent</title><polygon fill="#ffffb3" stroke="#000" points="2316.94 -84.8 2211.06 -84.8 2211.06 -48.8 2316.94 -48.8 2316.94 -84.8"/><text x="2264" y="-62.6" font-family="Times,serif" font-size="14" text-anchor="middle">AppComponent</text></g><g id="node13" class="node"><title>AppModule</title><polygon fill="#8dd3c7" stroke="#000" points="1189.66 -149.8 1186.66 -153.8 1165.66 -153.8 1162.66 -149.8 1106.34 -149.8 1106.34 -113.8 1189.66 -113.8 1189.66 -149.8"/><text x="1148" y="-127.6" font-family="Times,serif" font-size="14" text-anchor="middle">AppModule</text></g><g id="edge1" class="edge"><title>AppComponent-&gt;AppModule</title><path fill="none" stroke="#000" d="M2264,-85.12C2264,-108.46 2264,-145.8 2264,-145.8 2264,-145.8 1199.71,-145.8 1199.71,-145.8"/><polygon fill="#000" stroke="#000" points="1199.71 -142.3 1189.71 -145.8 1199.71 -149.3 1199.71 -142.3"/></g><g id="node2" class="node"><title>CrosshairsComponent</title><polygon fill="#ffffb3" stroke="#000" points="2193.43 -84.8 2052.57 -84.8 2052.57 -48.8 2193.43 -48.8 2193.43 -84.8"/><text x="2123" y="-62.6" font-family="Times,serif" font-size="14" text-anchor="middle">CrosshairsComponent</text></g><g id="edge2" class="edge"><title>CrosshairsComponent-&gt;AppModule</title><path fill="none" stroke="#000" d="M2123,-85.09C2123,-107.01 2123,-140.8 2123,-140.8 2123,-140.8 1199.89,-140.8 1199.89,-140.8"/><polygon fill="#000" stroke="#000" points="1199.89 -137.3 1189.89 -140.8 1199.89 -144.3 1199.89 -137.3"/></g><g id="node3" class="node"><title>DashboardComponent</title><polygon fill="#ffffb3" stroke="#000" points="2034.97 -84.8 1893.03 -84.8 1893.03 -48.8 2034.97 -48.8 2034.97 -84.8"/><text x="1964" y="-62.6" font-family="Times,serif" font-size="14" text-anchor="middle">DashboardComponent</text></g><g id="edge3" class="edge"><title>DashboardComponent-&gt;AppModule</title><path fill="none" stroke="#000" d="M1964,-84.83C1964,-105.57 1964,-136.8 1964,-136.8 1964,-136.8 1199.87,-136.8 1199.87,-136.8"/><polygon fill="#000" stroke="#000" points="1199.87 -133.3 1189.87 -136.8 1199.87 -140.3 1199.87 -133.3"/></g><g id="node4" class="node"><title>HitsoundComponent</title><polygon fill="#ffffb3" stroke="#000" points="1875.17 -84.8 1742.83 -84.8 1742.83 -48.8 1875.17 -48.8 1875.17 -84.8"/><text x="1809" y="-62.6" font-family="Times,serif" font-size="14" text-anchor="middle">HitsoundComponent</text></g><g id="edge4" class="edge"><title>HitsoundComponent-&gt;AppModule</title><path fill="none" stroke="#000" d="M1809,-84.91C1809,-104.14 1809,-131.8 1809,-131.8 1809,-131.8 1199.85,-131.8 1199.85,-131.8"/><polygon fill="#000" stroke="#000" points="1199.85 -128.3 1189.85 -131.8 1199.85 -135.3 1199.85 -128.3"/></g><g id="node5" class="node"><title>HudComponent</title><polygon fill="#ffffb3" stroke="#000" points="1724.94 -84.8 1619.06 -84.8 1619.06 -48.8 1724.94 -48.8 1724.94 -84.8"/><text x="1672" y="-62.6" font-family="Times,serif" font-size="14" text-anchor="middle">HudComponent</text></g><g id="edge5" class="edge"><title>HudComponent-&gt;AppModule</title><path fill="none" stroke="#000" d="M1672,-85.1C1672,-103.07 1672,-127.8 1672,-127.8 1672,-127.8 1200,-127.8 1200,-127.8"/><polygon fill="#000" stroke="#000" points="1200 -124.3 1190 -127.8 1200 -131.3 1200 -124.3"/></g><g id="node6" class="node"><title>MultipleWarningComponent</title><polygon fill="#ffffb3" stroke="#000" points="1601.04 -84.8 1422.96 -84.8 1422.96 -48.8 1601.04 -48.8 1601.04 -84.8"/><text x="1512" y="-62.6" font-family="Times,serif" font-size="14" text-anchor="middle">MultipleWarningComponent</text></g><g id="edge6" class="edge"><title>MultipleWarningComponent-&gt;AppModule</title><path fill="none" stroke="#000" d="M1512,-84.83C1512,-101.2 1512,-122.8 1512,-122.8 1512,-122.8 1199.76,-122.8 1199.76,-122.8"/><polygon fill="#000" stroke="#000" points="1199.76 -119.3 1189.76 -122.8 1199.76 -126.3 1199.76 -119.3"/></g><g id="node7" class="node"><title>QuestionAnswerComponent</title><polygon fill="#ffffb3" stroke="#000" points="1404.91 -84.8 1229.09 -84.8 1229.09 -48.8 1404.91 -48.8 1404.91 -84.8"/><text x="1317" y="-62.6" font-family="Times,serif" font-size="14" text-anchor="middle">QuestionAnswerComponent</text></g><g id="edge7" class="edge"><title>QuestionAnswerComponent-&gt;AppModule</title><path fill="none" stroke="#000" d="M1317,-84.99C1317,-99.98 1317,-118.8 1317,-118.8 1317,-118.8 1199.78,-118.8 1199.78,-118.8"/><polygon fill="#000" stroke="#000" points="1199.78 -115.3 1189.78 -118.8 1199.78 -122.3 1199.78 -115.3"/></g><g id="node8" class="node"><title>SettingsComponent</title><polygon fill="#ffffb3" stroke="#000" points="1211.45 -84.8 1084.55 -84.8 1084.55 -48.8 1211.45 -48.8 1211.45 -84.8"/><text x="1148" y="-62.6" font-family="Times,serif" font-size="14" text-anchor="middle">SettingsComponent</text></g><g id="edge8" class="edge"><title>SettingsComponent-&gt;AppModule</title><path fill="none" stroke="#000" d="M1148,-84.91C1148,-84.91 1148,-103.79 1148,-103.79"/><polygon fill="#000" stroke="#000" points="1144.5 -103.79 1148 -113.79 1151.5 -103.79 1144.5 -103.79"/></g><g id="node9" class="node"><title>SetupComponent</title><polygon fill="#ffffb3" stroke="#000" points="1066.72 -84.8 953.28 -84.8 953.28 -48.8 1066.72 -48.8 1066.72 -84.8"/><text x="1010" y="-62.6" font-family="Times,serif" font-size="14" text-anchor="middle">SetupComponent</text></g><g id="edge9" class="edge"><title>SetupComponent-&gt;AppModule</title><path fill="none" stroke="#000" d="M1010,-84.99C1010,-99.98 1010,-118.8 1010,-118.8 1010,-118.8 1096.22,-118.8 1096.22,-118.8"/><polygon fill="#000" stroke="#000" points="1096.22 -122.3 1106.22 -118.8 1096.22 -115.3 1096.22 -122.3"/></g><g id="node10" class="node"><title>UploadChangeNameComponent</title><polygon fill="#ffffb3" stroke="#000" points="935.24 -84.8 736.76 -84.8 736.76 -48.8 935.24 -48.8 935.24 -84.8"/><text x="836" y="-62.6" font-family="Times,serif" font-size="14" text-anchor="middle">UploadChangeNameComponent</text></g><g id="edge10" class="edge"><title>UploadChangeNameComponent-&gt;AppModule</title><path fill="none" stroke="#000" d="M836,-84.83C836,-101.2 836,-122.8 836,-122.8 836,-122.8 1096.25,-122.8 1096.25,-122.8"/><polygon fill="#000" stroke="#000" points="1096.25 -126.3 1106.25 -122.8 1096.25 -119.3 1096.25 -126.3"/></g><g id="node11" class="node"><title>WeaponsSoundsComponent</title><polygon fill="#ffffb3" stroke="#000" points="718.15 -84.8 543.85 -84.8 543.85 -48.8 718.15 -48.8 718.15 -84.8"/><text x="631" y="-62.6" font-family="Times,serif" font-size="14" text-anchor="middle">WeaponsSoundsComponent</text></g><g id="edge11" class="edge"><title>WeaponsSoundsComponent-&gt;AppModule</title><path fill="none" stroke="#000" d="M631,-85.1C631,-103.07 631,-127.8 631,-127.8 631,-127.8 1096.13,-127.8 1096.13,-127.8"/><polygon fill="#000" stroke="#000" points="1096.13 -131.3 1106.13 -127.8 1096.13 -124.3 1096.13 -131.3"/></g><g id="node12" class="node"><title>YesNoComponent</title><polygon fill="#ffffb3" stroke="#000" points="526.2 -84.8 405.8 -84.8 405.8 -48.8 526.2 -48.8 526.2 -84.8"/><text x="466" y="-62.6" font-family="Times,serif" font-size="14" text-anchor="middle">YesNoComponent</text></g><g id="edge12" class="edge"><title>YesNoComponent-&gt;AppModule</title><path fill="none" stroke="#000" d="M466,-84.91C466,-104.14 466,-131.8 466,-131.8 466,-131.8 1096.11,-131.8 1096.11,-131.8"/><polygon fill="#000" stroke="#000" points="1096.11 -135.3 1106.11 -131.8 1096.11 -128.3 1096.11 -135.3"/></g><g id="node17" class="node"><title>AppComponent</title><polygon fill="#80b1d3" stroke="#000" points="1202.44 -214.8 1093.56 -214.8 1093.56 -178.8 1202.44 -178.8 1202.44 -214.8"/><text x="1148" y="-192.6" font-family="Times,serif" font-size="14" text-anchor="middle">AppComponent</text></g><g id="edge16" class="edge"><title>AppModule-&gt;AppComponent</title><path fill="none" stroke="#000" stroke-dasharray="1 5" d="M1148,-149.91C1148,-149.91 1148,-168.79 1148,-168.79"/><polygon fill="#000" stroke="#000" points="1144.5 -168.79 1148 -178.79 1151.5 -168.79 1144.5 -168.79"/></g><g id="node14" class="node"><title>AppRoutingModule</title><polygon fill="#8dd3c7" stroke="#000" points="382.27 -84.8 379.27 -88.8 358.27 -88.8 355.27 -84.8 253.73 -84.8 253.73 -48.8 382.27 -48.8 382.27 -84.8"/><text x="318" y="-62.6" font-family="Times,serif" font-size="14" text-anchor="middle">AppRoutingModule</text></g><g id="edge13" class="edge"><title>AppRoutingModule-&gt;AppModule</title><path fill="none" stroke="#000" d="M318,-84.83C318,-105.57 318,-136.8 318,-136.8 318,-136.8 1096.27,-136.8 1096.27,-136.8"/><polygon fill="#000" stroke="#000" points="1096.27 -140.3 1106.27 -136.8 1096.27 -133.3 1096.27 -140.3"/></g><g id="node15" class="node"><title>CoreModule</title><polygon fill="#8dd3c7" stroke="#000" points="235.26 -84.8 232.26 -88.8 211.26 -88.8 208.26 -84.8 148.74 -84.8 148.74 -48.8 235.26 -48.8 235.26 -84.8"/><text x="192" y="-62.6" font-family="Times,serif" font-size="14" text-anchor="middle">CoreModule</text></g><g id="edge14" class="edge"><title>CoreModule-&gt;AppModule</title><path fill="none" stroke="#000" d="M192,-85.09C192,-107.01 192,-140.8 192,-140.8 192,-140.8 1096.31,-140.8 1096.31,-140.8"/><polygon fill="#000" stroke="#000" points="1096.31 -144.3 1106.31 -140.8 1096.31 -137.3 1096.31 -144.3"/></g><g id="node16" class="node"><title>MaterialModule</title><polygon fill="#8dd3c7" stroke="#000" points="130.47 -84.8 127.47 -88.8 106.47 -88.8 103.47 -84.8 23.53 -84.8 23.53 -48.8 130.47 -48.8 130.47 -84.8"/><text x="77" y="-62.6" font-family="Times,serif" font-size="14" text-anchor="middle">MaterialModule</text></g><g id="edge15" class="edge"><title>MaterialModule-&gt;AppModule</title><path fill="none" stroke="#000" d="M77,-85.12C77,-108.46 77,-145.8 77,-145.8 77,-145.8 1096.02,-145.8 1096.02,-145.8"/><polygon fill="#000" stroke="#000" points="1096.02 -149.3 1106.02 -145.8 1096.02 -142.3 1096.02 -149.3"/></g></g></svg>