<svg xmlns="http://www.w3.org/2000/svg" xmlns:xlink="http://www.w3.org/1999/xlink" width="3132" height="247pt" viewBox="0 0 2349 246.8"><g id="graph0" class="graph" transform="scale(1 1) rotate(0) translate(4 242.8)"><title>dependencies</title><polygon fill="#fff" stroke="transparent" points="-4 4 -4 -242.8 2345 -242.8 2345 4 -4 4"/><text x="1170.5" y="-8.2" font-family="sans-serif" font-size="14" text-anchor="middle">dependencies</text><g id="clust1" class="cluster"><title>cluster_AppModule</title><polygon fill="none" stroke="#000" stroke-dasharray="1 5" points="8 -32.8 8 -230.8 2333 -230.8 2333 -32.8 8 -32.8"/></g><g id="clust17" class="cluster"><title>cluster_AppModule_bootstrap</title><polygon fill="none" stroke="#000" points="1228 -170.8 1228 -222.8 1352 -222.8 1352 -170.8 1228 -170.8"/></g><g id="clust15" class="cluster"><title>cluster_AppModule_imports</title><polygon fill="none" stroke="#000" points="1951 -40.8 1951 -92.8 2325 -92.8 2325 -40.8 1951 -40.8"/></g><g id="clust2" class="cluster"><title>cluster_AppModule_declarations</title><polygon fill="none" stroke="#000" points="16 -40.8 16 -92.8 1943 -92.8 1943 -40.8 16 -40.8"/></g><g id="node1" class="node"><title>AppComponent</title><polygon fill="#ffffb3" stroke="#000" points="1934.94 -84.8 1829.06 -84.8 1829.06 -48.8 1934.94 -48.8 1934.94 -84.8"/><text x="1882" y="-62.6" font-family="Times,serif" font-size="14" text-anchor="middle">AppComponent</text></g><g id="node13" class="node"><title>AppModule</title><polygon fill="#8dd3c7" stroke="#000" points="1331.66 -149.8 1328.66 -153.8 1307.66 -153.8 1304.66 -149.8 1248.34 -149.8 1248.34 -113.8 1331.66 -113.8 1331.66 -149.8"/><text x="1290" y="-127.6" font-family="Times,serif" font-size="14" text-anchor="middle">AppModule</text></g><g id="edge1" class="edge"><title>AppComponent-&gt;AppModule</title><path fill="none" stroke="#000" d="M1882,-84.91C1882,-104.14 1882,-131.8 1882,-131.8 1882,-131.8 1342.1,-131.8 1342.1,-131.8"/><polygon fill="#000" stroke="#000" points="1342.1 -128.3 1332.1 -131.8 1342.1 -135.3 1342.1 -128.3"/></g><g id="node2" class="node"><title>CrosshairsComponent</title><polygon fill="#ffffb3" stroke="#000" points="1811.43 -84.8 1670.57 -84.8 1670.57 -48.8 1811.43 -48.8 1811.43 -84.8"/><text x="1741" y="-62.6" font-family="Times,serif" font-size="14" text-anchor="middle">CrosshairsComponent</text></g><g id="edge2" class="edge"><title>CrosshairsComponent-&gt;AppModule</title><path fill="none" stroke="#000" d="M1741,-85.1C1741,-103.07 1741,-127.8 1741,-127.8 1741,-127.8 1342.02,-127.8 1342.02,-127.8"/><polygon fill="#000" stroke="#000" points="1342.02 -124.3 1332.02 -127.8 1342.02 -131.3 1342.02 -124.3"/></g><g id="node3" class="node"><title>DashboardComponent</title><polygon fill="#ffffb3" stroke="#000" points="1652.97 -84.8 1511.03 -84.8 1511.03 -48.8 1652.97 -48.8 1652.97 -84.8"/><text x="1582" y="-62.6" font-family="Times,serif" font-size="14" text-anchor="middle">DashboardComponent</text></g><g id="edge3" class="edge"><title>DashboardComponent-&gt;AppModule</title><path fill="none" stroke="#000" d="M1582,-84.83C1582,-101.2 1582,-122.8 1582,-122.8 1582,-122.8 1341.84,-122.8 1341.84,-122.8"/><polygon fill="#000" stroke="#000" points="1341.84 -119.3 1331.84 -122.8 1341.84 -126.3 1341.84 -119.3"/></g><g id="node4" class="node"><title>HitsoundComponent</title><polygon fill="#ffffb3" stroke="#000" points="1493.17 -84.8 1360.83 -84.8 1360.83 -48.8 1493.17 -48.8 1493.17 -84.8"/><text x="1427" y="-62.6" font-family="Times,serif" font-size="14" text-anchor="middle">HitsoundComponent</text></g><g id="edge4" class="edge"><title>HitsoundComponent-&gt;AppModule</title><path fill="none" stroke="#000" d="M1427,-84.99C1427,-99.98 1427,-118.8 1427,-118.8 1427,-118.8 1341.85,-118.8 1341.85,-118.8"/><polygon fill="#000" stroke="#000" points="1341.85 -115.3 1331.85 -118.8 1341.85 -122.3 1341.85 -115.3"/></g><g id="node5" class="node"><title>HudComponent</title><polygon fill="#ffffb3" stroke="#000" points="1342.94 -84.8 1237.06 -84.8 1237.06 -48.8 1342.94 -48.8 1342.94 -84.8"/><text x="1290" y="-62.6" font-family="Times,serif" font-size="14" text-anchor="middle">HudComponent</text></g><g id="edge5" class="edge"><title>HudComponent-&gt;AppModule</title><path fill="none" stroke="#000" d="M1290,-84.91C1290,-84.91 1290,-103.79 1290,-103.79"/><polygon fill="#000" stroke="#000" points="1286.5 -103.79 1290 -113.79 1293.5 -103.79 1286.5 -103.79"/></g><g id="node6" class="node"><title>MultipleWarningComponent</title><polygon fill="#ffffb3" stroke="#000" points="1219.04 -84.8 1040.96 -84.8 1040.96 -48.8 1219.04 -48.8 1219.04 -84.8"/><text x="1130" y="-62.6" font-family="Times,serif" font-size="14" text-anchor="middle">MultipleWarningComponent</text></g><g id="edge6" class="edge"><title>MultipleWarningComponent-&gt;AppModule</title><path fill="none" stroke="#000" d="M1130,-84.99C1130,-99.98 1130,-118.8 1130,-118.8 1130,-118.8 1237.96,-118.8 1237.96,-118.8"/><polygon fill="#000" stroke="#000" points="1237.96 -122.3 1247.96 -118.8 1237.96 -115.3 1237.96 -122.3"/></g><g id="node7" class="node"><title>QuestionAnswerComponent</title><polygon fill="#ffffb3" stroke="#000" points="1022.91 -84.8 847.09 -84.8 847.09 -48.8 1022.91 -48.8 1022.91 -84.8"/><text x="935" y="-62.6" font-family="Times,serif" font-size="14" text-anchor="middle">QuestionAnswerComponent</text></g><g id="edge7" class="edge"><title>QuestionAnswerComponent-&gt;AppModule</title><path fill="none" stroke="#000" d="M935,-84.83C935,-101.2 935,-122.8 935,-122.8 935,-122.8 1238.23,-122.8 1238.23,-122.8"/><polygon fill="#000" stroke="#000" points="1238.23 -126.3 1248.23 -122.8 1238.23 -119.3 1238.23 -126.3"/></g><g id="node8" class="node"><title>SettingsComponent</title><polygon fill="#ffffb3" stroke="#000" points="829.45 -84.8 702.55 -84.8 702.55 -48.8 829.45 -48.8 829.45 -84.8"/><text x="766" y="-62.6" font-family="Times,serif" font-size="14" text-anchor="middle">SettingsComponent</text></g><g id="edge8" class="edge"><title>SettingsComponent-&gt;AppModule</title><path fill="none" stroke="#000" d="M766,-85.1C766,-103.07 766,-127.8 766,-127.8 766,-127.8 1238,-127.8 1238,-127.8"/><polygon fill="#000" stroke="#000" points="1238 -131.3 1248 -127.8 1238 -124.3 1238 -131.3"/></g><g id="node9" class="node"><title>SetupComponent</title><polygon fill="#ffffb3" stroke="#000" points="684.72 -84.8 571.28 -84.8 571.28 -48.8 684.72 -48.8 684.72 -84.8"/><text x="628" y="-62.6" font-family="Times,serif" font-size="14" text-anchor="middle">SetupComponent</text></g><g id="edge9" class="edge"><title>SetupComponent-&gt;AppModule</title><path fill="none" stroke="#000" d="M628,-84.91C628,-104.14 628,-131.8 628,-131.8 628,-131.8 1238.34,-131.8 1238.34,-131.8"/><polygon fill="#000" stroke="#000" points="1238.34 -135.3 1248.34 -131.8 1238.34 -128.3 1238.34 -135.3"/></g><g id="node10" class="node"><title>UploadChangeNameComponent</title><polygon fill="#ffffb3" stroke="#000" points="553.24 -84.8 354.76 -84.8 354.76 -48.8 553.24 -48.8 553.24 -84.8"/><text x="454" y="-62.6" font-family="Times,serif" font-size="14" text-anchor="middle">UploadChangeNameComponent</text></g><g id="edge10" class="edge"><title>UploadChangeNameComponent-&gt;AppModule</title><path fill="none" stroke="#000" d="M454,-84.83C454,-105.57 454,-136.8 454,-136.8 454,-136.8 1238.26,-136.8 1238.26,-136.8"/><polygon fill="#000" stroke="#000" points="1238.26 -140.3 1248.26 -136.8 1238.26 -133.3 1238.26 -140.3"/></g><g id="node11" class="node"><title>WeaponsSoundsComponent</title><polygon fill="#ffffb3" stroke="#000" points="336.15 -84.8 161.85 -84.8 161.85 -48.8 336.15 -48.8 336.15 -84.8"/><text x="249" y="-62.6" font-family="Times,serif" font-size="14" text-anchor="middle">WeaponsSoundsComponent</text></g><g id="edge11" class="edge"><title>WeaponsSoundsComponent-&gt;AppModule</title><path fill="none" stroke="#000" d="M249,-85.09C249,-107.01 249,-140.8 249,-140.8 249,-140.8 1238.23,-140.8 1238.23,-140.8"/><polygon fill="#000" stroke="#000" points="1238.23 -144.3 1248.23 -140.8 1238.23 -137.3 1238.23 -144.3"/></g><g id="node12" class="node"><title>YesNoComponent</title><polygon fill="#ffffb3" stroke="#000" points="144.2 -84.8 23.8 -84.8 23.8 -48.8 144.2 -48.8 144.2 -84.8"/><text x="84" y="-62.6" font-family="Times,serif" font-size="14" text-anchor="middle">YesNoComponent</text></g><g id="edge12" class="edge"><title>YesNoComponent-&gt;AppModule</title><path fill="none" stroke="#000" d="M84,-85.12C84,-108.46 84,-145.8 84,-145.8 84,-145.8 1238.14,-145.8 1238.14,-145.8"/><polygon fill="#000" stroke="#000" points="1238.14 -149.3 1248.14 -145.8 1238.14 -142.3 1238.14 -149.3"/></g><g id="node17" class="node"><title>AppComponent</title><polygon fill="#80b1d3" stroke="#000" points="1344.44 -214.8 1235.56 -214.8 1235.56 -178.8 1344.44 -178.8 1344.44 -214.8"/><text x="1290" y="-192.6" font-family="Times,serif" font-size="14" text-anchor="middle">AppComponent</text></g><g id="edge16" class="edge"><title>AppModule-&gt;AppComponent</title><path fill="none" stroke="#000" stroke-dasharray="1 5" d="M1290,-149.91C1290,-149.91 1290,-168.79 1290,-168.79"/><polygon fill="#000" stroke="#000" points="1286.5 -168.79 1290 -178.79 1293.5 -168.79 1286.5 -168.79"/></g><g id="node14" class="node"><title>AppRoutingModule</title><polygon fill="#8dd3c7" stroke="#000" points="2317.27 -84.8 2314.27 -88.8 2293.27 -88.8 2290.27 -84.8 2188.73 -84.8 2188.73 -48.8 2317.27 -48.8 2317.27 -84.8"/><text x="2253" y="-62.6" font-family="Times,serif" font-size="14" text-anchor="middle">AppRoutingModule</text></g><g id="edge13" class="edge"><title>AppRoutingModule-&gt;AppModule</title><path fill="none" stroke="#000" d="M2253,-85.12C2253,-108.46 2253,-145.8 2253,-145.8 2253,-145.8 1341.69,-145.8 1341.69,-145.8"/><polygon fill="#000" stroke="#000" points="1341.69 -142.3 1331.69 -145.8 1341.69 -149.3 1341.69 -142.3"/></g><g id="node15" class="node"><title>CoreModule</title><polygon fill="#8dd3c7" stroke="#000" points="2170.26 -84.8 2167.26 -88.8 2146.26 -88.8 2143.26 -84.8 2083.74 -84.8 2083.74 -48.8 2170.26 -48.8 2170.26 -84.8"/><text x="2127" y="-62.6" font-family="Times,serif" font-size="14" text-anchor="middle">CoreModule</text></g><g id="edge14" class="edge"><title>CoreModule-&gt;AppModule</title><path fill="none" stroke="#000" d="M2127,-85.09C2127,-107.01 2127,-140.8 2127,-140.8 2127,-140.8 1341.79,-140.8 1341.79,-140.8"/><polygon fill="#000" stroke="#000" points="1341.79 -137.3 1331.79 -140.8 1341.79 -144.3 1341.79 -137.3"/></g><g id="node16" class="node"><title>MaterialModule</title><polygon fill="#8dd3c7" stroke="#000" points="2065.47 -84.8 2062.47 -88.8 2041.47 -88.8 2038.47 -84.8 1958.53 -84.8 1958.53 -48.8 2065.47 -48.8 2065.47 -84.8"/><text x="2012" y="-62.6" font-family="Times,serif" font-size="14" text-anchor="middle">MaterialModule</text></g><g id="edge15" class="edge"><title>MaterialModule-&gt;AppModule</title><path fill="none" stroke="#000" d="M2012,-84.83C2012,-105.57 2012,-136.8 2012,-136.8 2012,-136.8 1341.67,-136.8 1341.67,-136.8"/><polygon fill="#000" stroke="#000" points="1341.67 -133.3 1331.67 -136.8 1341.67 -140.3 1341.67 -133.3"/></g></g></svg>